<?xml version="1.0" encoding="UTF-8" standalone="no"?>
<svg
   height="512"
   width="512"
   version="1.1"
   id="svg851"
   sodipodi:docname="armor_heavy_shield.svg"
   inkscape:version="1.2.2 (732a01da63, 2022-12-09)"
   xmlns:inkscape="http://www.inkscape.org/namespaces/inkscape"
   xmlns:sodipodi="http://sodipodi.sourceforge.net/DTD/sodipodi-0.dtd"
   xmlns="http://www.w3.org/2000/svg"
   xmlns:svg="http://www.w3.org/2000/svg">
  <defs
     id="defs302" />
  <sodipodi:namedview
     id="namedview300"
     pagecolor="#000000"
     bordercolor="#000000"
     borderopacity="0.25"
     inkscape:showpageshadow="2"
     inkscape:pageopacity="0.58039216"
     inkscape:pagecheckerboard="0"
     inkscape:deskcolor="#d1d1d1"
     showgrid="false"
     inkscape:zoom="1.9570312"
     inkscape:cx="256"
     inkscape:cy="256"
     inkscape:window-width="2560"
     inkscape:window-height="1369"
     inkscape:window-x="1912"
     inkscape:window-y="-8"
     inkscape:window-maximized="1"
     inkscape:current-layer="svg851" />
  <g
     id="shape0"
     transform="matrix(4.6758658,0,0,4.6758658,22.96814,-58.915909)">
    <path
       d="M 87.55,84.55 Q 75.85,108.65 49.9,122 25.5,108.65 12.65,85 0,61.1 0.45,30.9 26,29.05 49.9,12.6 q 21.25,15.95 49.45,18.6 0,29.3 -11.8,53.35 M 80.2,45.15 q 0,17.95 -7.25,32.7 Q 65.8,92.6 49.9,100.75 34.95,92.6 27.1,78.15 19.3,63.45 19.6,45 35.25,43.85 49.9,33.8 q 13,9.75 30.3,11.35 M 11.6,39.1 Q 11.25,62.45 21,81 31,99.3 49.9,109.65 70,99.3 79.05,80.65 88.2,62 88.2,39.35 66.35,37.25 49.9,24.95 31.4,37.7 11.6,39.1"
       fill="#ffffff"
       fill-rule="evenodd"
       stroke="none"
       id="path296" />
  </g>
</svg>
