<?xml version="1.0" encoding="UTF-8" standalone="no"?>
<svg
   height="512"
   width="512"
   version="1.1"
   id="svg851"
   sodipodi:docname="armor_clothing_arm.svg"
   inkscape:version="1.2.2 (732a01da63, 2022-12-09)"
   xmlns:inkscape="http://www.inkscape.org/namespaces/inkscape"
   xmlns:sodipodi="http://sodipodi.sourceforge.net/DTD/sodipodi-0.dtd"
   xmlns="http://www.w3.org/2000/svg"
   xmlns:svg="http://www.w3.org/2000/svg">
  <defs
     id="defs366" />
  <sodipodi:namedview
     id="namedview364"
     pagecolor="#202020"
     bordercolor="#000000"
     borderopacity="0.25"
     inkscape:showpageshadow="2"
     inkscape:pageopacity="0"
     inkscape:pagecheckerboard="0"
     inkscape:deskcolor="#d1d1d1"
     showgrid="false"
     inkscape:zoom="1.9570312"
     inkscape:cx="255.48902"
     inkscape:cy="256"
     inkscape:window-width="2560"
     inkscape:window-height="1369"
     inkscape:window-x="1912"
     inkscape:window-y="-8"
     inkscape:window-maximized="1"
     inkscape:current-layer="svg851" />
  <g
     transform="matrix(4.4590331,0,0,4.4590331,0.70138231,-13.764863)"
     id="g849">
    <g
       id="shape0"
       transform="translate(-1.45,-16.05)">
      <path
         d="m 88.25,78.05 q 1.4,15.7 4.9,24.25 2.55,5.6 -0.8,8.65 -4.3,3.4 -9.3,0.95 -7.55,-9.75 -7.85,-21.25 l -23.7,30.3 q -3.95,2.9 -8.1,1.15 -4.15,-1.7 -3.3,-8.85 L 58.7,90.7 35.5,110.5 q -4.65,3.05 -7.75,0.1 -3,-2.85 -0.5,-7.55 L 47.3,85.75 23.05,98.25 q -6.15,0.55 -7.85,-3.5 -1.6,-4.4 1.7,-6.7 L 37.5,76.9 18.2,82.15 q -5.55,-2 -5.65,-5.55 0.6,-3.1 3.8,-5.35 L 31.7,66.4 34.5,65.15 q 6.9,-9.35 18.5,-15.4 1.1,-0.85 6.25,-2.7 l 8.05,-19.5 q 30.1,11.2 38.8,40.6 l -17.85,9.9"
         fill="#ffffff"
         fill-rule="evenodd"
         stroke="none"
         id="path359" />
    </g>
  </g>
</svg>
