<?xml version="1.0" encoding="UTF-8" standalone="no"?>
<svg
   height="512"
   width="512"
   version="1.1"
   id="svg851"
   sodipodi:docname="armor_necklace.svg"
   inkscape:version="1.2.2 (732a01da63, 2022-12-09)"
   xmlns:inkscape="http://www.inkscape.org/namespaces/inkscape"
   xmlns:sodipodi="http://sodipodi.sourceforge.net/DTD/sodipodi-0.dtd"
   xmlns="http://www.w3.org/2000/svg"
   xmlns:svg="http://www.w3.org/2000/svg">
  <defs
     id="defs260" />
  <sodipodi:namedview
     id="namedview258"
     pagecolor="#ffffff"
     bordercolor="#000000"
     borderopacity="0.25"
     inkscape:showpageshadow="2"
     inkscape:pageopacity="0.0"
     inkscape:pagecheckerboard="0"
     inkscape:deskcolor="#d1d1d1"
     showgrid="false"
     inkscape:zoom="1.9570312"
     inkscape:cx="256"
     inkscape:cy="256"
     inkscape:window-width="2560"
     inkscape:window-height="1369"
     inkscape:window-x="1912"
     inkscape:window-y="-8"
     inkscape:window-maximized="1"
     inkscape:current-layer="svg851" />
  <g
     transform="matrix(4.0618802,0,0,4.0618802,-51.372868,-22.088854)"
     id="g849">
    <path
       d="M 103.55,82.85 Q 115.1,71.3 115.1,55 115.1,38.75 103.55,27.2 92,15.65 75.7,15.65 59.45,15.65 47.9,27.2 36.4,38.75 36.4,55 q 0,16.3 11.5,27.85 7.85,7.85 18.05,10.35 l -1.7,1 -0.2,0.2 q -1.5,0.95 -2.85,2.4 l -2.1,2.4 Q 49.95,95.8 42.45,88.25 28.65,74.5 28.65,55 28.65,35.45 42.45,21.65 56.25,7.9 75.75,7.9 q 19.5,0 33.3,13.75 13.8,13.8 13.8,33.35 0,19.5 -13.8,33.25 -7.5,7.55 -16.75,11 l -2,-2.35 -0.2,-0.1 Q 89,95.6 87.75,94.75 L 87.25,94.3 85.5,93.25 q 10.15,-2.5 18.05,-10.4 M 65.25,101 65.3,100.95 67.35,99.2 67.5,99.1 q 3.6,-2.45 8.15,-2.45 4.65,0 8.3,2.5 l 0.3,0.35 q 0.95,0.55 1.75,1.45 l 0.1,0.05 q 4.2,4.3 4.2,10.3 0,6.05 -4.3,10.35 -4.3,4.25 -10.35,4.25 -6,0 -10.35,-4.25 -4.3,-4.3 -4.3,-10.35 0,-6 4.25,-10.3 m 10.4,3.55 q -2.7,0 -4.7,2.05 -1.9,1.95 -1.9,4.65 0,2.75 1.9,4.7 2,1.95 4.7,1.95 2.75,0 4.7,-1.95 1.95,-1.95 1.95,-4.7 0,-2.7 -1.95,-4.65 -1.95,-2.05 -4.7,-2.05"
       fill="#ffffff"
       fill-rule="evenodd"
       stroke="none"
       id="path254" />
  </g>
</svg>
