<?xml version="1.0" encoding="UTF-8" standalone="no"?>
<svg
   height="512"
   width="512"
   version="1.1"
   id="svg851"
   sodipodi:docname="armor_heavy_arm.svg"
   inkscape:version="1.2.2 (732a01da63, 2022-12-09)"
   xmlns:inkscape="http://www.inkscape.org/namespaces/inkscape"
   xmlns:sodipodi="http://sodipodi.sourceforge.net/DTD/sodipodi-0.dtd"
   xmlns="http://www.w3.org/2000/svg"
   xmlns:svg="http://www.w3.org/2000/svg">
  <defs
     id="defs461" />
  <sodipodi:namedview
     id="namedview459"
     pagecolor="#222222"
     bordercolor="#000000"
     borderopacity="0.25"
     inkscape:showpageshadow="2"
     inkscape:pageopacity="0"
     inkscape:pagecheckerboard="0"
     inkscape:deskcolor="#d1d1d1"
     showgrid="false"
     inkscape:zoom="1.9570312"
     inkscape:cx="256"
     inkscape:cy="256"
     inkscape:window-width="2560"
     inkscape:window-height="1369"
     inkscape:window-x="1912"
     inkscape:window-y="-8"
     inkscape:window-maximized="1"
     inkscape:current-layer="svg851" />
  <g
     transform="matrix(4.0618802,0,0,4.0618802,22.994012,22.994012)"
     id="g849">
    <g
       id="shape0"
       transform="translate(-1.45,-16.05)">
      <path
         d="M 115.95,48.75 65.05,86 Q 54.3,73.1 39.25,67.2 l 30.1,-51.1 q 38.55,-1.4 46.5,32.1 l 0.1,0.55 m 1.2,12.4 -52.4,37 q 0.95,11.55 3.95,18.7 2.1,4.65 -0.75,7.25 -3.6,2.8 -7.7,0.75 -6.35,-8.1 -6.6,-17.7 L 33.9,132.4 q -3.3,2.45 -6.7,1 -3.5,-1.45 -2.8,-7.4 L 39.85,107.1 20.5,123.7 q -3.85,2.6 -6.4,0.05 -2.5,-2.45 -0.35,-6.35 L 30.45,103 10.15,113.4 Q 5,113.9 3.6,110.55 2.3,106.9 5,104.95 L 22.2,95.7 6.2,100 q -4.7,-1.65 -4.75,-4.6 0.4,-2.65 3.1,-4.45 l 12.8,-4.05 2.35,-1 1.35,-1.7 q 8.9,16.05 25.4,21.2 l 69.85,-51.15 0.85,6.9 M 34.6,72.5 36.5,71.25 Q 50.95,76.9 61.25,89 l -15.3,11.25 Q 31,95.55 23.1,80.75 27.95,75.95 34.6,72.5"
         fill="#ffffff"
         fill-rule="evenodd"
         stroke="none"
         id="path454" />
    </g>
  </g>
</svg>
