<?xml version="1.0" encoding="UTF-8" standalone="no"?>
<svg
   height="512"
   width="512"
   version="1.1"
   id="svg851"
   sodipodi:docname="armor_light_arm.svg"
   inkscape:version="1.2.2 (732a01da63, 2022-12-09)"
   xmlns:inkscape="http://www.inkscape.org/namespaces/inkscape"
   xmlns:sodipodi="http://sodipodi.sourceforge.net/DTD/sodipodi-0.dtd"
   xmlns="http://www.w3.org/2000/svg"
   xmlns:svg="http://www.w3.org/2000/svg">
  <defs
     id="defs531" />
  <sodipodi:namedview
     id="namedview529"
     pagecolor="#000000"
     bordercolor="#000000"
     borderopacity="0.25"
     inkscape:showpageshadow="2"
     inkscape:pageopacity="0"
     inkscape:pagecheckerboard="0"
     inkscape:deskcolor="#d1d1d1"
     showgrid="false"
     inkscape:zoom="1.9570312"
     inkscape:cx="256"
     inkscape:cy="256"
     inkscape:window-width="2560"
     inkscape:window-height="1369"
     inkscape:window-x="1912"
     inkscape:window-y="-8"
     inkscape:window-maximized="1"
     inkscape:current-layer="svg851" />
  <g
     transform="matrix(4.0618802,0,0,4.0618802,22.483034,17.373253)"
     id="g849">
    <g
       id="shape0"
       transform="translate(-1.45,-16.05)">
      <path
         d="M 113.1,61.65 64.4,96.1 q 1,10.65 3.65,17.3 1.95,4.35 -0.6,6.7 -3.5,2.65 -7.25,0.7 -5.9,-7.5 -6.05,-16.4 L 35.7,127.85 q -2.95,2.3 -6.15,0.95 -3.25,-1.4 -2.65,-6.9 L 41.25,104.4 23.4,119.8 q -3.7,2.35 -6.05,0.05 Q 15.05,117.6 17,114 l 15.6,-13.45 -18.9,9.7 q -4.75,0.4 -6.05,-2.65 -1.2,-3.4 1.3,-5.25 l 15.9,-8.6 -14.8,4.05 Q 5.7,96.25 5.65,93.5 6,91.1 8.6,89.4 l 11.8,-3.85 2.15,-0.9 q 5.35,-7.3 14.35,-11.95 0.8,-0.6 1.8,-1.1 l 15.45,-26.2 -0.1,0.2 14.4,-24.5 q 35.75,-1.3 43.1,29.85 l 0.5,2.5 1.05,8.2"
         fill="#ffffff"
         fill-rule="evenodd"
         stroke="none"
         id="path524" />
    </g>
  </g>
</svg>
