<?xml version="1.0" encoding="UTF-8" standalone="no"?>
<svg
   height="512"
   width="512"
   version="1.1"
   id="svg851"
   sodipodi:docname="armor_light_shield.svg"
   inkscape:version="1.2.2 (732a01da63, 2022-12-09)"
   xmlns:inkscape="http://www.inkscape.org/namespaces/inkscape"
   xmlns:sodipodi="http://sodipodi.sourceforge.net/DTD/sodipodi-0.dtd"
   xmlns="http://www.w3.org/2000/svg"
   xmlns:svg="http://www.w3.org/2000/svg">
  <defs
     id="defs281" />
  <sodipodi:namedview
     id="namedview279"
     pagecolor="#020202"
     bordercolor="#000000"
     borderopacity="0.25"
     inkscape:showpageshadow="2"
     inkscape:pageopacity="0"
     inkscape:pagecheckerboard="0"
     inkscape:deskcolor="#d1d1d1"
     showgrid="false"
     showborder="true"
     shape-rendering="auto"
     inkscape:zoom="1.9570312"
     inkscape:cx="256"
     inkscape:cy="256"
     inkscape:window-width="2560"
     inkscape:window-height="1369"
     inkscape:window-x="1912"
     inkscape:window-y="-8"
     inkscape:window-maximized="1"
     inkscape:current-layer="svg851" />
  <g
     id="shape0"
     transform="matrix(4.6809128,0,0,4.6809128,22.716934,-58.702569)">
    <path
       d="M 87.4,84.5 Q 75.8,108.65 49.9,121.9 25.5,108.65 12.75,84.95 0.1,61.1 0.5,30.95 l 49.4,-18.3 49.4,18.6 Q 99.3,60.5 87.4,84.5 M 26,49.75 49.9,40.9 l 23.9,9 Q 73.8,64 68,75.6 62.45,87.25 49.9,93.75 38.1,87.25 31.9,75.85 25.75,64.3 26,49.75 M 10.9,38.55 q -0.35,23.9 9.65,42.65 10.1,18.65 29.35,29.2 20.5,-10.55 29.6,-29.55 9.35,-18.9 9.35,-42 L 49.9,24.2 10.9,38.55"
       fill="#ffffff"
       fill-rule="evenodd"
       stroke="none"
       id="path275" />
  </g>
</svg>
