<?xml version="1.0" encoding="UTF-8" standalone="no"?>
<svg
   height="512"
   width="512"
   version="1.1"
   id="svg520"
   sodipodi:docname="warhammer_two_handed.svg"
   inkscape:version="1.2.2 (732a01da63, 2022-12-09)"
   xmlns:inkscape="http://www.inkscape.org/namespaces/inkscape"
   xmlns:sodipodi="http://sodipodi.sourceforge.net/DTD/sodipodi-0.dtd"
   xmlns="http://www.w3.org/2000/svg"
   xmlns:svg="http://www.w3.org/2000/svg">
  <defs
     id="defs524" />
  <sodipodi:namedview
     id="namedview522"
     pagecolor="#505050"
     bordercolor="#ffffff"
     borderopacity="1"
     inkscape:showpageshadow="0"
     inkscape:pageopacity="0"
     inkscape:pagecheckerboard="1"
     inkscape:deskcolor="#505050"
     showgrid="false"
     inkscape:zoom="1.9570312"
     inkscape:cx="256"
     inkscape:cy="256"
     inkscape:window-width="2560"
     inkscape:window-height="1369"
     inkscape:window-x="1912"
     inkscape:window-y="-8"
     inkscape:window-maximized="1"
     inkscape:current-layer="svg520" />
  <g
     id="shape0"
     transform="matrix(0.54381306,0,0,0.54381306,120.24313,-0.70695698)">
    <path
       d="M 362.15,362.85 Q 337.2,388 305.5,356.5 l -89.85,89.85 403.35,403.1 14,-14.2 30.6,30.6 -76.95,76.95 -30.6,-30.6 13.3,-13.35 L 166.05,495.75 72.7,589.1 17.85,534.25 -46,598.3 -143.05,501 l 63.8,-64.05 -55.3,-55.3 93.35,-93.35 -20.1,-20.1 49.6,-49.4 20.15,20.1 89.8,-89.85 -2.8,-2.85 q -31.7,-31.7 -6.8,-56.85 l 88.1,-88.05 273.5,273.45 -88.1,88.1"
       fill="#ffffff"
       fill-rule="evenodd"
       stroke="none"
       id="path4" />
  </g>
</svg>
